<svg width="32" height="32" viewBox="0 0 217 181" fill="none" xmlns="http://www.w3.org/2000/svg">
  <defs>
    <linearGradient id="logo-gradient" x1="0%" y1="0%" x2="100%" y2="100%">
      <stop offset="0%" stop-color="#ff0000"/>
      <stop offset="16%" stop-color="#ff9100"/>
      <stop offset="33%" stop-color="#ffcc00"/>
      <stop offset="50%" stop-color="#00ffcc"/>
      <stop offset="66%" stop-color="#0066ff"/>
      <stop offset="83%" stop-color="#7f00ff"/>
      <stop offset="100%" stop-color="#ff0066"/>
    </linearGradient>
  </defs>
  <path fill="url(#logo-gradient)" d="M109.149 34.785C116.88 34.6559 123.042 28.2841 122.913 20.5532C122.784 12.8223 116.412 6.65981 108.681 6.78892L108.915 20.787L109.149 34.785ZM40.9088 116.949L27.3865 120.575L27.3865 120.575L40.9088 116.949ZM40.679 117.909L50.8982 127.478L50.8983 127.478L40.679 117.909ZM72.0053 143.518L79.2007 155.528H79.2007L72.0053 143.518ZM202.754 19.3593L216.685 17.9797V17.9797L202.754 19.3593ZM147.967 35.3943L155.311 47.3134L155.311 47.3134L147.967 35.3943ZM148.131 37.3465L142.753 50.2723L142.753 50.2724L148.131 37.3465ZM104.25 150.28C96.5675 151.158 91.0511 158.096 91.9283 165.778C92.8055 173.46 99.7442 178.977 107.426 178.1L105.838 164.19L104.25 150.28ZM108.915 20.787L108.681 6.78892C91.1408 7.08186 65.5859 13.7072 46.7479 31.522C26.8562 50.3332 16.4386 79.7462 27.3865 120.575L40.9088 116.949L54.4312 113.324C45.8145 81.1887 54.4561 62.77 65.9866 51.8658C78.5708 39.9651 96.8012 34.9912 109.149 34.785L108.915 20.787ZM40.679 117.909L30.4598 108.34C23.3347 115.949 16.026 124.988 10.4449 133.581C7.66027 137.868 5.12527 142.32 3.27105 146.625C1.55346 150.614 -0.213785 155.892 0.0213442 161.374C0.147446 164.314 0.874791 167.865 3.02346 171.255C5.26121 174.785 8.46456 177.222 11.986 178.629C18.2685 181.138 25.0589 180.217 30.3687 178.899C41.5983 176.114 57.5179 168.519 79.2007 155.528L72.0053 143.518L64.8098 131.509C54.2844 137.815 45.6959 142.473 38.7779 145.784C31.78 149.133 26.8698 150.919 23.6275 151.723C22.0261 152.12 21.1361 152.2 20.8037 152.209C20.4344 152.219 21.136 152.133 22.3725 152.626C23.8044 153.198 25.4722 154.37 26.6718 156.263C27.7824 158.015 27.9691 159.557 27.9956 160.174C28.0315 161.011 27.8289 160.391 28.9878 157.7C30.01 155.326 31.6632 152.317 33.9265 148.832C38.4413 141.881 44.667 134.133 50.8982 127.478L40.679 117.909ZM72.0053 143.518L79.2007 155.528C124.054 128.654 158.6 100.696 181.664 77.0508L171.642 67.2751L161.621 57.4995C140.453 79.2005 107.873 105.708 64.8098 131.509L72.0053 143.518ZM171.642 67.2751L181.664 77.0508C192.731 65.7058 201.398 55.1038 207.294 45.8637C210.238 41.2498 212.666 36.7027 214.321 32.3601C215.899 28.2219 217.2 23.1801 216.685 17.9797L202.754 19.3593L188.822 20.739C188.728 19.7976 189.011 20.1488 188.158 22.3859C187.383 24.4186 185.969 27.2291 183.689 30.8034C179.136 37.9397 171.827 47.0366 161.621 57.4995L171.642 67.2751ZM202.754 19.3593L216.685 17.9797C216.248 13.5649 214.197 7.25824 207.769 3.22371C201.962 -0.421171 195.334 -0.402724 189.886 0.516437C179.072 2.3407 163.537 9.35645 140.623 23.4752L147.967 35.3943L155.311 47.3134C178.007 33.3291 189.533 28.9717 194.544 28.1263C197.007 27.7107 195.483 28.5702 192.884 26.9391C189.664 24.9183 188.927 21.798 188.822 20.739L202.754 19.3593ZM148.131 37.3465L142.753 50.2724C146.598 51.8719 153.599 58.9792 158.527 72.1739L171.642 67.2751L184.757 62.3763C178.749 46.2916 167.909 30.4118 153.509 24.4206L148.131 37.3465ZM171.642 67.2751L158.527 72.1739C164.182 87.3112 165.085 105.341 158.117 119.765C151.58 133.298 136.681 146.577 104.25 150.28L105.838 164.19L107.426 178.1C147.125 173.566 171.708 156.002 183.33 131.945C194.521 108.777 192.262 82.4685 184.757 62.3764L171.642 67.2751ZM147.967 35.3943L140.623 23.4752C129.949 30.0516 131.649 45.6526 142.753 50.2723L148.131 37.3465L153.509 24.4206C163.008 28.373 164.505 41.6484 155.311 47.3134L147.967 35.3943ZM40.9088 116.949L27.3865 120.575C26.3067 116.548 27.1767 111.846 30.4597 108.34L40.679 117.909L50.8983 127.478C54.6573 123.464 55.6913 118.023 54.4312 113.324L40.9088 116.949Z"/>
</svg>